<svg width="64" height="64" viewBox="0 0 64 64" fill="none" xmlns="http://www.w3.org/2000/svg">
<g clip-path="url(#clip0_54_71)">
<path d="M44.375 10.125H19.5V53.875H44.375V10.125Z" fill="white"/>
<path d="M32 0C14.3546 0 0 14.3546 0 32C0 49.6454 14.3546 64 32 64C49.6454 64 64 49.6454 64 32C64 14.3546 49.6454 0 32 0ZM41.8854 33.8854L28.552 47.2186C28.032 47.7386 27.3494 48 26.6666 48C25.984 48 25.3012 47.7386 24.7812 47.2186C23.7386 46.176 23.7386 44.4906 24.7812 43.448L36.2294 32L24.7814 20.552C23.7388 19.5094 23.7388 17.824 24.7814 16.7814C25.824 15.7388 27.5094 15.7388 28.552 16.7814L41.8854 30.1147C42.928 31.1574 42.928 32.8426 41.8854 33.8854Z" fill="black"/>
</g>
<defs>
<clipPath id="clip0_54_71">
<rect width="64" height="64" fill="white"/>
</clipPath>
</defs>
</svg>
