<svg width="80" height="80" viewBox="0 0 80 80" fill="none" xmlns="http://www.w3.org/2000/svg">
<g clip-path="url(#clip0_54_71)">
<path d="M55.4688 12.6562H24.375V67.3438H55.4688V12.6562Z" fill="white"/>
<path d="M40 0C17.9433 0 0 17.9433 0 40C0 62.0567 17.9433 80 40 80C62.0567 80 80 62.0567 80 40C80 17.9433 62.0567 0 40 0ZM52.3567 42.3567L35.69 59.0233C35.04 59.6733 34.1867 60 33.3333 60C32.48 60 31.6266 59.6733 30.9766 59.0233C29.6733 57.72 29.6733 55.6133 30.9766 54.31L45.2867 40L30.9767 25.69C29.6734 24.3867 29.6734 22.28 30.9767 20.9767C32.28 19.6734 34.3867 19.6734 35.69 20.9767L52.3567 37.6434C53.66 38.9467 53.66 41.0533 52.3567 42.3567Z" fill="black"/>
</g>
<defs>
<clipPath id="clip0_54_71">
<rect width="80" height="80" fill="white"/>
</clipPath>
</defs>
</svg>
