<?xml version="1.0"?>
<svg xmlns="http://www.w3.org/2000/svg" xmlns:xlink="http://www.w3.org/1999/xlink" xmlns:svgjs="http://svgjs.com/svgjs" version="1.1" width="512px" height="512px" x="0" y="0" viewBox="0 0 511.999 511.999" style="enable-background:new 0 0 512 512" xml:space="preserve" class=""><circle r="255.9995" cx="255.9995" cy="255.9995" fill="#ffffff" shape="circle" transform="matrix(0.42,0,0,0.42,148.47970794677735,148.47970794677735)"/><g transform="matrix(0.7,0,0,0.7,76.79970474243166,76.79969787597656)">
<path d="M255.999,0C147.059,0,58.43,88.629,58.43,197.568c0,37.618,10.251,77.556,30.467,118.703  c16.03,32.627,38.342,66.111,66.317,99.521c47.491,56.721,94.228,93.115,96.194,94.638c1.351,1.045,2.972,1.568,4.591,1.568  c1.619,0,3.24-0.523,4.591-1.568c1.967-1.522,48.703-37.917,96.194-94.638c27.974-33.411,50.287-66.895,66.317-99.521  c20.216-41.147,30.467-81.085,30.467-118.703C453.568,88.629,364.939,0,255.999,0z M255.999,129.263  c37.663,0,68.305,30.641,68.305,68.305c0,37.663-30.641,68.305-68.305,68.305s-68.305-30.641-68.305-68.305  C187.694,159.904,218.335,129.263,255.999,129.263z" fill="#ff4a4a" data-original="#ff4a4a" class=""/>
<path d="M255.999,0c-7.413,0-14.729,0.424-21.933,1.224c98.655,10.947,175.636,94.818,175.636,196.345  c0,37.618-10.25,77.556-30.467,118.703c-16.03,32.627-38.342,66.111-66.317,99.521c-30.47,36.392-60.628,64.415-78.852,80.231  c10.18,8.835,16.637,13.861,17.342,14.406c1.351,1.045,2.972,1.568,4.591,1.568c1.619,0,3.24-0.523,4.591-1.568  c1.967-1.522,48.703-37.917,96.194-94.638c27.974-33.411,50.287-66.895,66.317-99.521c20.216-41.147,30.467-81.085,30.467-118.703  C453.568,88.629,364.939,0,255.999,0z" fill="#e7343f" data-original="#e7343f" class=""/>
<g>
</g>
<g>
</g>
<g>
</g>
<g>
</g>
<g>
</g>
<g>
</g>
<g>
</g>
<g>
</g>
<g>
</g>
<g>
</g>
<g>
</g>
<g>
</g>
<g>
</g>
<g>
</g>
<g>
</g>
</g></svg>
