<svg width="64" height="64" viewBox="0 0 64 64" fill="none" xmlns="http://www.w3.org/2000/svg">
<g clip-path="url(#clip0_54_74)">
<path d="M45.375 12.5H20.5V56.25H45.375V12.5Z" fill="white"/>
<path d="M32 0C14.3546 0 0 14.3546 0 32C0 49.6454 14.3546 64 32 64C49.6454 64 64 49.6454 64 32C64 14.3546 49.6454 0 32 0ZM39.2186 43.448C40.2612 44.4906 40.2612 46.176 39.2186 47.2186C38.6986 47.7386 38.016 48 37.3332 48C36.6506 48 35.9679 47.7386 35.4479 47.2186L22.1146 33.8854C21.072 32.8428 21.072 31.1574 22.1146 30.1147L35.448 16.7814C36.4906 15.7388 38.176 15.7388 39.2186 16.7814C40.2612 17.824 40.2612 19.5094 39.2186 20.552L27.7706 32L39.2186 43.448Z" fill="black"/>
</g>
<defs>
<clipPath id="clip0_54_74">
<rect width="64" height="64" fill="white"/>
</clipPath>
</defs>
</svg>
