<?xml version="1.0" encoding="UTF-8"?><svg id="a" xmlns="http://www.w3.org/2000/svg" viewBox="0 0 1920 1080"><defs><style>.b{fill:#fff;}</style></defs><path class="b" d="M1718,817c8-3,39-12,39-12l101,175-98,77-37,7-86-162,81-85Z"/><polyline class="b" points="1363 125 1333 243 1388 355 1405.94 355 1454 231 1389.6 125 1368.15 125"/><polygon class="b" points="1008 267 992 664 1117.94 664 1150 438 1150 388.49 1150 262.87 1008 267"/><polyline class="b" points="705 306 685 392 714 564 937 578 937 398.7 937 306"/><polyline class="b" points="536 182 638 528 620.57 664 562 671 471.47 426.5 471.47 381.34 421 248 450.02 182 529.5 182"/><polyline class="b" points="410 548 414.28 548 501.09 548 529.5 615.21 523 678 410 678 394 630 389 631"/><path class="b" d="M209,234l176,325-21,49-133.55,5S25,286,21,286s33.79-52,33.79-52"/><polyline class="b" points="928 30 928 212.83 919 227 915 296 947 302 947 369.09 992 369.09 998 255 1095 255 1082 131 987 66 992 30 933.09 30"/><polygon class="b" points="397 694.1 1150 677.68 1177 795 360.15 795 397 694.1"/><polyline class="b" points="48 906 368 894 368 1047.21 48 1047.21 48 910.36"/></svg>